# xmcd
#
# Track frame offsets: 
#        150
#        10916
#        19711
#        31127
#        43149
#        53770
#        63989
#        75834
#        84345
#        96443
#        106482
#        116868
#        126674
#        136946
#        146583
#        157937
#        168924
#        179449
#        187934
#        199576
#        211652
#        222365
#        233556
#        245926
#        258173
#        268128
#
# Disc length: 3731 seconds
#
# Revision: 1
# Processed by: cddbd v1.5.2PL0 Copyright (c) Steve Scherf et al.
# Submitted via: ExactAudioCopyFreeDBPlugin 1.0
#
DISCID=670e911a
DTITLE=Don Gibson - A Legend In My Time
DYEAR=1987
DGENRE=Country
TTITLE0=Sittin' Here Cryin'
TTITLE1=Blue, Blue Day
TTITLE2=Oh Lonesome Me
TTITLE3=I Can't Stop Loving You
TTITLE4=Look Who's Blue
TTITLE5=If You Don't Know It
TTITLE6=Bad Bad Day
TTITLE7=Sweet Sweet Girl
TTITLE8=Give Myself A Party
TTITLE9=Who Cares
TTITLE10=Didn't Work Out, Did It?
TTITLE11=Lonesome Old House
TTITLE12=Don't Tell Me Your Troubles
TTITLE13=I Couldn't Care Less
TTITLE14=Just One Time
TTITLE15=A Legend In My Time
TTITLE16=Far Far Away
TTITLE17=Sweet Dreams
TTITLE18=Sea Of Heartbreak
TTITLE19=I Sat Back And Let It Happen
TTITLE20=Lonesome Number One
TTITLE21=I Can Mend Your Broken Heart
TTITLE22=If You Knew Me
TTITLE23=If You Don't Know The Sorrow
TTITLE24=Think Of Me
TTITLE25=I'm Crying Inside
EXTD=
EXTT0=
EXTT1=
EXTT2=
EXTT3=
EXTT4=
EXTT5=
EXTT6=
EXTT7=
EXTT8=
EXTT9=
EXTT10=
EXTT11=
EXTT12=
EXTT13=
EXTT14=
EXTT15=
EXTT16=
EXTT17=
EXTT18=
EXTT19=
EXTT20=
EXTT21=
EXTT22=
EXTT23=
EXTT24=
EXTT25=
PLAYORDER=
